<svg id="Capa_1" data-name="Capa 1" xmlns="http://www.w3.org/2000/svg" viewBox="0 0 351.99 349.53"><defs><style>.cls-1{fill:#801f1b;}.cls-2{fill:#1d1d1b;}</style></defs><polygon class="cls-1" points="85.34 90.99 0 176.33 85.21 261.54 170.52 176.23 119.7 125.41 84.92 160.2 100.86 176.14 118.48 158.52 136.06 176.1 85.76 226.41 35.45 176.1 102.83 108.73 85.34 90.99"/><path class="cls-1" d="M319.42,137.46,234.08,222.8,319.29,308,404.6,222.7l-17.43-17.42-67.34,67.6-50.3-50.3L336.9,155.2Z" transform="translate(-52.6 -46.47)"/><path class="cls-1" d="M229,217.17l85.31-85.31L263.44,81l-34.79,34.79,15.95,15.94,17.62-17.62,17.58,17.58-68.18,68.11Z" transform="translate(-52.6 -46.47)"/><path class="cls-1" d="M228.54,46.47l-85.31,85.31,50.82,50.82,34.78-34.78-15.94-15.95-17.62,17.62-17.58-17.58L245.86,63.8Z" transform="translate(-52.6 -46.47)"/><path class="cls-2" d="M63,373.3V348.86q0-10.47,3.64-14.32a11.93,11.93,0,0,1,8.95-3.84A11.18,11.18,0,0,1,84.74,335q3.42,4.21,3.42,13.59v27.23q0,12.87-3.42,16.57a11.71,11.71,0,0,1-9,3.66q-6.47,0-9.64-3.89t-3.14-16Zm6.06,0v2.1q0,8.65,1.89,11a5.63,5.63,0,0,0,9.23-.05q1.94-2.41,1.94-10.75V350.1q0-7.32-1.88-9.75a5.65,5.65,0,0,0-4.65-2.42A6,6,0,0,0,71,340.17q-2,2.19-2,10.34Z" transform="translate(-52.6 -46.47)"/><path class="cls-2" d="M96.26,331.38h6.06V378.7q0,5.13,1.67,7.6a5.15,5.15,0,0,0,4.49,2.47,5.37,5.37,0,0,0,4.74-2.7q1.73-2.74,1.72-7.73v-47H121v47.18q0,9.44-3.45,13.46a11.21,11.21,0,0,1-8.92,4,11.66,11.66,0,0,1-8.82-3.8q-3.56-3.79-3.55-12.77V331.38Z" transform="translate(-52.6 -46.47)"/><path class="cls-2" d="M127.41,331.38H154v7.23H143.73v56.7h-6.06v-56.7H127.41Z" transform="translate(-52.6 -46.47)"/><path class="cls-2" d="M164.77,373.58v3.75q0,6.18,1.69,8.83a5.39,5.39,0,0,0,4.78,2.61,6.09,6.09,0,0,0,5.18-2.56q1.91-2.56,1.91-7.42a12.65,12.65,0,0,0-1.41-6.45q-1.38-2.38-5.62-5.49-8.33-6.27-10-10.43a25.66,25.66,0,0,1-1.67-9.57q0-8.5,3.27-12.31a11.34,11.34,0,0,1,9.1-3.84q5.78,0,8.6,3.57t2.83,11.39v4.76h-6.06v-2.74a19.28,19.28,0,0,0-1.07-7.05,4.21,4.21,0,0,0-4.36-2.7,5.1,5.1,0,0,0-4.8,2.56,12.38,12.38,0,0,0-1.45,6.27c0,3.26.78,5.75,2.32,7.46a48.2,48.2,0,0,0,6.79,5.9q6.21,4.49,7.88,8.61a26.18,26.18,0,0,1,1.69,10q0,9.62-3.64,13.46a12.31,12.31,0,0,1-9.39,3.84q-7,0-9.86-4.85c-1.86-3.23-2.79-7.48-2.79-12.72v-4.85Z" transform="translate(-52.6 -46.47)"/><path class="cls-2" d="M191,373.3V348.86q0-10.47,3.64-14.32a11.92,11.92,0,0,1,9-3.84,11.16,11.16,0,0,1,9.16,4.25q3.43,4.21,3.43,13.59v27.23q0,12.87-3.43,16.57a11.71,11.71,0,0,1-9,3.66q-6.47,0-9.63-3.89t-3.14-16Zm6.06,0v2.1q0,8.65,1.88,11a5.78,5.78,0,0,0,4.65,2.38,5.68,5.68,0,0,0,4.58-2.43q2-2.41,1.95-10.75V350.1q0-7.32-1.89-9.75a5.63,5.63,0,0,0-4.64-2.42,6,6,0,0,0-4.56,2.24q-2,2.19-2,10.34Z" transform="translate(-52.6 -46.47)"/><path class="cls-2" d="M224.3,331.38h6.06V378.7q0,5.13,1.66,7.6a5.16,5.16,0,0,0,4.49,2.47,5.36,5.36,0,0,0,4.74-2.7q1.73-2.74,1.73-7.73v-47H249v47.18q0,9.44-3.46,13.46a11.2,11.2,0,0,1-8.91,4,11.67,11.67,0,0,1-8.83-3.8q-3.54-3.79-3.54-12.77V331.38Z" transform="translate(-52.6 -46.47)"/><path class="cls-2" d="M257.39,395.31V331.38H271c3.67,0,6.35,1.38,8.07,4.12s2.61,6.67,2.61,11.85A27.86,27.86,0,0,1,280,357.79q-1.67,4.06-6.84,5,4,.29,5.52,2.89c1,1.73,1.57,4.37,1.64,7.91q.31,16.38,1.72,21.69H275.6a157.51,157.51,0,0,1-1.35-20c0-3.12-.55-5.39-1.57-6.82s-2.7-2.15-5.09-2.15h-4.14v29Zm6.06-36.19h4.33q4.59,0,6.19-2.48c1.08-1.64,1.63-4.62,1.63-8.92,0-3.29-.53-5.63-1.57-7s-3-2.11-5.94-2.11h-4.64Z" transform="translate(-52.6 -46.47)"/><path class="cls-2" d="M307.34,374.22h6.06v3.06q0,10.39-3,14.56a10,10,0,0,1-8.64,4.16q-6.06,0-9.13-4t-3-14.6V350.42q0-11.12,3.23-15.42a10.82,10.82,0,0,1,9.14-4.3q5.77,0,8.6,3.84t2.83,11.53v4.35h-6.06V347a15.52,15.52,0,0,0-1.16-6.77,4.09,4.09,0,0,0-4-2.33,5.83,5.83,0,0,0-4.74,2.24q-1.82,2.19-1.82,7.92v30.66q0,5.63,1.73,7.82a5.17,5.17,0,0,0,4.2,2.2,4.57,4.57,0,0,0,4.4-3.11q1.35-3.12,1.35-9.66Z" transform="translate(-52.6 -46.47)"/><path class="cls-2" d="M321.53,331.38h6.06v63.93h-6.06Z" transform="translate(-52.6 -46.47)"/><path class="cls-2" d="M335.56,331.38h9.55l11.46,53.68V331.38h5.68v63.93H353l-11.74-55v55h-5.69Z" transform="translate(-52.6 -46.47)"/><path class="cls-2" d="M382.53,368.59v-7.23h12.59V393a26.17,26.17,0,0,1-12.3,3q-6.51,0-9.71-4t-3.17-13.5V349.83q0-10.71,3.36-14.92t9.52-4.21q6.18,0,9.23,4t3.07,11.9v3.11h-6.06v-.91q0-6-1.57-8.47a4.88,4.88,0,0,0-4.36-2.42,5.86,5.86,0,0,0-5.37,2.88Q376,343.69,376,350V377.1q0,7.23,1.82,9.47a6.41,6.41,0,0,0,5.18,2.2,14,14,0,0,0,6.06-1.74V368.59Z" transform="translate(-52.6 -46.47)"/></svg>