<svg id="Capa_1" data-name="Capa 1" xmlns="http://www.w3.org/2000/svg" viewBox="0 0 290.43 288.44"><defs><style>.cls-1{fill:#811f1c;}.cls-2{fill:#fff;}</style></defs><polygon class="cls-1" points="70.41 75.07 0 145.49 70.31 215.79 140.69 145.4 98.76 103.47 70.07 132.18 83.22 145.33 97.76 130.79 112.26 145.3 70.76 186.81 29.25 145.3 84.84 89.71 70.41 75.07"/><path class="cls-1" d="M254.4,78,184,148.43l70.31,70.3,70.39-70.38L310.29,134l-55.56,55.77-41.5-41.5,55.59-55.59Z" transform="translate(-34.25 -2.95)"/><path class="cls-1" d="M179.79,143.79,250.18,73.4l-42-42L179.5,60.14l13.16,13.15L207.2,58.75l14.51,14.51-56.26,56.2Z" transform="translate(-34.25 -2.95)"/><path class="cls-1" d="M179.41,3,109,73.33,151,115.26l28.69-28.69L166.5,73.41,152,88l-14.5-14.51,56.24-56.2Z" transform="translate(-34.25 -2.95)"/><path class="cls-2" d="M42.83,272.61V252.44q0-8.64,3-11.81a9.86,9.86,0,0,1,7.39-3.17A9.23,9.23,0,0,1,60.77,241q2.82,3.47,2.82,11.21v22.47q0,10.62-2.82,13.67a9.71,9.71,0,0,1-7.43,3q-5.34,0-8-3.21T42.8,275Zm5,0v1.73c0,4.76.52,7.78,1.56,9.08a4.63,4.63,0,0,0,7.61-.05q1.61-2,1.6-8.87v-21c0-4-.51-6.71-1.55-8.05a4.67,4.67,0,0,0-3.83-2,5,5,0,0,0-3.79,1.85q-1.65,1.81-1.65,8.53Z" transform="translate(-34.25 -2.95)"/><path class="cls-2" d="M70.27,238h5v39q0,4.23,1.38,6.27a4.23,4.23,0,0,0,3.7,2,4.42,4.42,0,0,0,3.91-2.23,11.75,11.75,0,0,0,1.42-6.37V238h5v38.92q0,7.8-2.84,11.11a9.26,9.26,0,0,1-7.36,3.3,9.58,9.58,0,0,1-7.28-3.14q-2.94-3.12-2.93-10.53Z" transform="translate(-34.25 -2.95)"/><path class="cls-2" d="M96,238h21.94v6h-8.47v46.79h-5V244H96Z" transform="translate(-34.25 -2.95)"/><path class="cls-2" d="M126.8,272.84v3.09q0,5.1,1.39,7.29a4.44,4.44,0,0,0,3.95,2.15,5,5,0,0,0,4.27-2.11,10.13,10.13,0,0,0,1.58-6.12,10.49,10.49,0,0,0-1.17-5.33,17,17,0,0,0-4.64-4.52q-6.87-5.18-8.25-8.61a21.28,21.28,0,0,1-1.37-7.9q0-7,2.69-10.15a9.35,9.35,0,0,1,7.51-3.17q4.77,0,7.1,2.94t2.33,9.4v3.93h-5v-2.26a16,16,0,0,0-.88-5.82,3.49,3.49,0,0,0-3.6-2.23,4.24,4.24,0,0,0-4,2.12,10.1,10.1,0,0,0-1.19,5.17,8.9,8.9,0,0,0,1.91,6.15,39.27,39.27,0,0,0,5.6,4.87q5.13,3.7,6.5,7.11a21.49,21.49,0,0,1,1.4,8.25q0,7.94-3,11.1a10.15,10.15,0,0,1-7.75,3.17q-5.77,0-8.14-4t-2.3-10.5v-4Z" transform="translate(-34.25 -2.95)"/><path class="cls-2" d="M148.44,272.61V252.44q0-8.64,3-11.81a9.83,9.83,0,0,1,7.43-3.17,9.23,9.23,0,0,1,7.56,3.51q2.82,3.47,2.83,11.21v22.46q0,10.62-2.83,13.68a9.71,9.71,0,0,1-7.43,3q-5.34,0-7.95-3.21t-2.59-13.2Zm5,0v1.73c0,4.76.52,7.78,1.55,9.08a4.8,4.8,0,0,0,3.84,2,4.69,4.69,0,0,0,3.78-2q1.65-2,1.6-8.87v-21q0-6-1.56-8.05a4.66,4.66,0,0,0-3.82-2,5,5,0,0,0-3.77,1.85q-1.65,1.81-1.65,8.53Z" transform="translate(-34.25 -2.95)"/><path class="cls-2" d="M175.91,238h5v39q0,4.23,1.37,6.27a4.26,4.26,0,0,0,3.71,2,4.42,4.42,0,0,0,3.91-2.23,11.93,11.93,0,0,0,1.43-6.37V238h5v38.92q0,7.8-2.85,11.11a9.25,9.25,0,0,1-7.35,3.3,9.62,9.62,0,0,1-7.29-3.14q-2.93-3.12-2.92-10.53V238Z" transform="translate(-34.25 -2.95)"/><path class="cls-2" d="M203.22,290.77V238h11.23a7.29,7.29,0,0,1,6.65,3.4c1.42,2.26,2.16,5.5,2.16,9.78a23,23,0,0,1-1.39,8.61q-1.38,3.35-5.64,4.13c2.2.15,3.72.95,4.55,2.38a13.82,13.82,0,0,1,1.35,6.53q.27,13.51,1.42,17.89h-5.31a130,130,0,0,1-1.11-16.5,9.83,9.83,0,0,0-1.3-5.63,4.79,4.79,0,0,0-4.2-1.77h-3.41v23.93Zm5-29.86h3.57c2.52,0,4.23-.68,5.11-2.05s1.34-3.81,1.34-7.36c0-2.71-.44-4.64-1.29-5.77S214.47,244,212,244h-3.82Z" transform="translate(-34.25 -2.95)"/><path class="cls-2" d="M244.43,273.37h5v2.52q0,8.58-2.48,12a8.24,8.24,0,0,1-7.13,3.44q-5,0-7.53-3.3T229.82,276V253.73q0-9.18,2.66-12.72a8.92,8.92,0,0,1,7.54-3.55c3.18,0,5.54,1,7.1,3.17s2.33,5.28,2.33,9.51v3.59h-5v-2.82a12.74,12.74,0,0,0-.95-5.59,3.38,3.38,0,0,0-3.3-1.92,4.79,4.79,0,0,0-3.91,1.85q-1.51,1.8-1.51,6.53v25.3q0,4.65,1.43,6.45a4.28,4.28,0,0,0,3.47,1.82,3.79,3.79,0,0,0,3.63-2.57c.74-1.72,1.11-4.37,1.11-8Z" transform="translate(-34.25 -2.95)"/><path class="cls-2" d="M256.14,238h5v52.75h-5Z" transform="translate(-34.25 -2.95)"/><path class="cls-2" d="M267.71,238h7.88l9.46,44.29V238h4.68v52.75H282.1l-9.68-45.38v45.38h-4.7Z" transform="translate(-34.25 -2.95)"/><path class="cls-2" d="M306.47,268.72v-6h10.38v26.1a21.71,21.71,0,0,1-10.14,2.48q-5.38,0-8-3.3t-2.61-11.14V253.24q0-8.84,2.77-12.31a9.5,9.5,0,0,1,7.86-3.47c3.4,0,5.93,1.1,7.61,3.3s2.52,5.47,2.53,9.82v2.56h-5v-.75q0-4.95-1.29-7a4,4,0,0,0-3.6-2,4.85,4.85,0,0,0-4.43,2.37q-1.45,2.4-1.45,7.6v22.36c0,4,.5,6.58,1.5,7.82a5.28,5.28,0,0,0,4.27,1.81,11.5,11.5,0,0,0,5-1.43V268.72Z" transform="translate(-34.25 -2.95)"/></svg>