<svg id="Capa_1" data-name="Capa 1" xmlns="http://www.w3.org/2000/svg" viewBox="0 0 450.83 134.38"><defs><style>.cls-1{fill:#801f1b;}.cls-2{fill:#fff;}</style></defs><polygon class="cls-1" points="43.85 46.75 0 90.59 43.78 134.37 87.61 90.54 61.5 64.43 43.63 82.31 51.82 90.5 60.87 81.44 69.91 90.48 44.06 116.32 18.21 90.48 52.83 55.86 43.85 46.75"/><path class="cls-1" d="M137.08,46.75,93.24,90.6,137,134.38l43.83-43.83-9-9-34.59,34.73L111.41,90.48,146,55.87Z" transform="translate(0 0)"/><path class="cls-1" d="M90.6,87.7l43.83-43.83L108.32,17.76,90.45,35.64l8.19,8.19,9.06-9.06,9,9-35,35Z" transform="translate(0 0)"/><path class="cls-1" d="M90.39,0,46.56,43.83,72.67,69.94,90.54,52.09,82.35,43.9l-9,9-9-9,35-35Z" transform="translate(0 0)"/><path class="cls-2" d="M195.81,61.29V42.53q0-8.06,2.8-11a9.12,9.12,0,0,1,6.87-3,8.54,8.54,0,0,1,7,3.26q2.69,3.25,2.68,10.44V63.19q0,9.87-2.62,12.72a9,9,0,0,1-6.9,2.81q-5,0-7.4-3t-2.41-12.26Zm4.65,0v1.62q0,6.65,1.45,8.47a4.46,4.46,0,0,0,3.57,1.83A4.36,4.36,0,0,0,209,71.34q1.49-1.86,1.49-8.25V43.47c0-3.74-.48-6.24-1.45-7.48a4.3,4.3,0,0,0-3.56-1.86,4.56,4.56,0,0,0-3.5,1.72c-1,1.12-1.51,3.77-1.52,7.94Z" transform="translate(0 0)"/><path class="cls-2" d="M221.36,29.09H226V65.43q0,3.93,1.27,5.83a4,4,0,0,0,3.45,1.9,4.13,4.13,0,0,0,3.64-2.08,11.18,11.18,0,0,0,1.33-5.94v-36h4.65V65.32q0,7.25-2.65,10.33a8.62,8.62,0,0,1-6.85,3.06,8.93,8.93,0,0,1-6.77-2.92q-2.73-2.91-2.73-9.8Z" transform="translate(0 0)"/><path class="cls-2" d="M245.28,29.09H265.7v5.55h-7.89V78.19h-4.65V34.65h-7.88Z" transform="translate(0 0)"/><path class="cls-2" d="M274,61.5v2.88q0,4.74,1.3,6.78a4.12,4.12,0,0,0,3.66,2,4.69,4.69,0,0,0,4-2,9.36,9.36,0,0,0,1.47-5.69,9.66,9.66,0,0,0-1.09-5A15.74,15.74,0,0,0,279,56.25c-4.26-3.2-6.81-5.88-7.67-8a19.54,19.54,0,0,1-1.27-7.34q0-6.54,2.5-9.45a8.72,8.72,0,0,1,7-2.95q4.44,0,6.61,2.74c1.45,1.83,2.17,4.74,2.17,8.75v3.65h-4.68V41.54a15.08,15.08,0,0,0-.82-5.41,3.24,3.24,0,0,0-3.35-2.07,3.9,3.9,0,0,0-3.69,2,9.49,9.49,0,0,0-1.11,4.81,8.24,8.24,0,0,0,1.78,5.73,38.73,38.73,0,0,0,5.21,4.53q4.77,3.45,6.05,6.61A20,20,0,0,1,289,65.4q0,7.36-2.79,10.33a9.46,9.46,0,0,1-7.21,3c-3.6,0-6.13-1.24-7.57-3.73a19.37,19.37,0,0,1-2.15-9.77V61.46Z" transform="translate(0 0)"/><path class="cls-2" d="M294.16,61.29V42.53q0-8.06,2.8-11a9.12,9.12,0,0,1,6.87-3,8.54,8.54,0,0,1,7,3.26q2.63,3.24,2.62,10.44V63.19q0,9.87-2.62,12.72a9,9,0,0,1-6.9,2.81q-5,0-7.4-3t-2.37-12.25Zm4.65,0v1.62q0,6.65,1.45,8.47a4.46,4.46,0,0,0,3.57,1.83,4.36,4.36,0,0,0,3.52-1.87q1.48-1.86,1.49-8.25V43.47c0-3.74-.48-6.24-1.45-7.48a4.3,4.3,0,0,0-3.56-1.86,4.56,4.56,0,0,0-3.5,1.72c-1,1.12-1.51,3.77-1.52,7.94Z" transform="translate(0 0)"/><path class="cls-2" d="M319.67,29.09h4.66V65.43q0,3.93,1.27,5.83a4,4,0,0,0,3.45,1.9,4.13,4.13,0,0,0,3.64-2.08A11.18,11.18,0,0,0,334,65.14v-36h4.65V65.32q0,7.25-2.65,10.33a8.62,8.62,0,0,1-6.85,3.06,8.93,8.93,0,0,1-6.77-2.92q-2.73-2.91-2.73-9.8Z" transform="translate(0 0)"/><path class="cls-2" d="M345.08,78.19V29.09h10.44a6.8,6.8,0,0,1,6.2,3.17q2,3.12,2,9.1a21.39,21.39,0,0,1-1.28,8q-1.28,3.12-5.26,3.86,3.09.21,4.25,2.22a12.76,12.76,0,0,1,1.25,6.08q.24,12.57,1.33,16.65h-5a123.12,123.12,0,0,1-1-15.35,9.31,9.31,0,0,0-1.21-5.24,4.4,4.4,0,0,0-3.9-1.65h-3.19V78.19Zm4.65-27.79h3.33c2.35,0,3.93-.64,4.75-1.9s1.25-3.55,1.25-6.85c0-2.53-.4-4.33-1.2-5.38s-2.32-1.62-4.56-1.62h-3.57Z" transform="translate(0 0)"/><path class="cls-2" d="M383.44,62h4.65v2.36q0,8-2.29,11.17a7.67,7.67,0,0,1-6.63,3.2q-4.65,0-7-3.09t-2.33-11.21V43.72q0-8.53,2.48-11.84a8.31,8.31,0,0,1,7-3.3q4.44,0,6.61,3t2.17,8.85v3.34h-4.65V41.09a11.72,11.72,0,0,0-.9-5.2,3.1,3.1,0,0,0-3-1.79,4.45,4.45,0,0,0-3.64,1.72q-1.4,1.68-1.4,6.08V65.44q0,4.32,1.32,6a4,4,0,0,0,3.24,1.69,3.5,3.5,0,0,0,3.37-2.39,19.9,19.9,0,0,0,1-7.42Z" transform="translate(0 0)"/><path class="cls-2" d="M394.33,29.09H399v49.1h-4.66Z" transform="translate(0 0)"/><path class="cls-2" d="M405.16,29.09h7.33l8.8,41.22V29.09h4.36v49.1h-7.11l-9-42.2v42.2h-4.38Z" transform="translate(0 0)"/><path class="cls-2" d="M441.16,57.67V52.09h9.67V76.4a19.93,19.93,0,0,1-9.45,2.29c-3.33,0-5.82-1-7.45-3.06s-2.44-5.5-2.43-10.37v-22q0-8.22,2.58-11.45a8.78,8.78,0,0,1,7.3-3.23q4.75,0,7.09,3.09t2.36,9.13v2.39h-4.67v-.7c0-3.09-.4-5.25-1.21-6.5a3.75,3.75,0,0,0-3.35-1.86,4.49,4.49,0,0,0-4.12,2.21q-1.35,2.22-1.35,7.06V64.21q0,5.55,1.4,7.27a4.93,4.93,0,0,0,4,1.69,10.86,10.86,0,0,0,4.65-1.34V57.67Z" transform="translate(0 0)"/><path class="cls-2" d="M249.41,98.34h3.48l4.19,17.75V98.34h2.08v21.09h-3.38l-4.3-18.13v18.13h-2.07Z" transform="translate(0 0)"/><path class="cls-2" d="M262,98.34h2.22v21.09H262Z" transform="translate(0 0)"/><path class="cls-2" d="M266.5,98.34h9.72v2.39h-3.75v18.7h-2.22v-18.7H266.5Z" transform="translate(0 0)"/><path class="cls-2" d="M278.37,116.2h2.45v3.23h-2.45Z" transform="translate(0 0)"/><path class="cls-2" d="M283.32,113.6h2.08v.5a4.74,4.74,0,0,0,.49,2.4,1.61,1.61,0,0,0,1.47.8c1.32,0,2.05-.76,2.18-2.28s.2-2.9.2-4.54a4,4,0,0,1-2.94,1.43c-1.83,0-2.93-1.07-3.32-3.23a20.88,20.88,0,0,1-.23-3.35,15.45,15.45,0,0,1,.43-4.39,3.8,3.8,0,0,1,3.86-2.83,3.71,3.71,0,0,1,3.67,2.38c.4.88.61,2.94.61,6.17v.63q0,5-.28,7.79-.42,4.58-4.27,4.58a3.45,3.45,0,0,1-3-1.3,6.23,6.23,0,0,1-.91-3.55Zm2-8.51a8.11,8.11,0,0,0,.53,3.55,1.76,1.76,0,0,0,1.62.92,1.89,1.89,0,0,0,1.65-.94,7.18,7.18,0,0,0,.64-3.68,11.09,11.09,0,0,0-.26-2.87,1.92,1.92,0,0,0-2-1.6c-1,0-1.68.6-2,1.81a13.92,13.92,0,0,0-.17,2.81Z" transform="translate(0 0)"/><path class="cls-2" d="M294.09,112.83v-5.91q0-3.23.06-4.71a4.26,4.26,0,0,1,.82-2.48,4.11,4.11,0,0,1,3.49-1.64,3.85,3.85,0,0,1,4.09,3,15.84,15.84,0,0,1,.28,3.7v8.3a9.05,9.05,0,0,1-1.07,5,3.74,3.74,0,0,1-3.31,1.53,4,4,0,0,1-3.14-1.39c-.81-.94-1.22-2.52-1.22-4.74Zm2.08-8v8.74a4.71,4.71,0,0,0,.69,3,2.05,2.05,0,0,0,1.6.81,2,2,0,0,0,1.61-.8,5.27,5.27,0,0,0,.68-3.2v-8.94a6.2,6.2,0,0,0-.55-3.12,2,2,0,0,0-1.79-.8,2.07,2.07,0,0,0-1.65.71,4.8,4.8,0,0,0-.59,2.85Z" transform="translate(0 0)"/><path class="cls-2" d="M304.93,112.83v-5.91c0-2.15,0-3.72.05-4.71a4.27,4.27,0,0,1,.83-2.48,4.07,4.07,0,0,1,3.49-1.62,3.84,3.84,0,0,1,4.08,3,15.32,15.32,0,0,1,.28,3.7v8.28a9.05,9.05,0,0,1-1.07,5,3.72,3.72,0,0,1-3.3,1.53,4,4,0,0,1-3.15-1.39c-.81-.94-1.21-2.52-1.21-4.74Zm2.07-8v8.74a4.71,4.71,0,0,0,.69,3,2.09,2.09,0,0,0,1.61.81,2,2,0,0,0,1.61-.8,5.26,5.26,0,0,0,.67-3.2v-8.94a6,6,0,0,0-.55-3.12,2,2,0,0,0-1.79-.8,2.05,2.05,0,0,0-1.64.71A4.65,4.65,0,0,0,307,104Z" transform="translate(0 0)"/><path class="cls-2" d="M316.07,116.2h2.46v3.23h-2.46Z" transform="translate(0 0)"/><path class="cls-2" d="M323.16,113.38v1.27a3.21,3.21,0,0,0,.62,2.12,1.46,1.46,0,0,0,1.21.53,2,2,0,0,0,1.72-.8,5.21,5.21,0,0,0,.69-3.09v-.32q0-3.91-2.54-3.91h-.37v-2.35a5,5,0,0,0,1.67-.29,1.67,1.67,0,0,0,1-1.31,8.34,8.34,0,0,0,.19-1.8,4,4,0,0,0-.49-2.34,1.69,1.69,0,0,0-1.45-.65,1.78,1.78,0,0,0-1.56.74,3.83,3.83,0,0,0-.5,2.17v.79h-2.09v-.86a6,6,0,0,1,1.06-3.9,3.67,3.67,0,0,1,3-1.3,4,4,0,0,1,3,1.17,5.57,5.57,0,0,1,1.12,3.94,7.79,7.79,0,0,1-.55,3.44,2.88,2.88,0,0,1-1.73,1.46,3,3,0,0,1,1.73,1.41,8.67,8.67,0,0,1,.54,3.74A11.33,11.33,0,0,1,329,117a3.87,3.87,0,0,1-3.93,2.71,3.48,3.48,0,0,1-3-1.45,7.11,7.11,0,0,1-1-4v-.78Z" transform="translate(0 0)"/><path class="cls-2" d="M331.16,112l5-13.69H339v13.57h1.95v2.36H339v5.16h-2.07v-5.16h-5.75Zm1.85-.12h3.93V101.09Z" transform="translate(0 0)"/><path class="cls-2" d="M345.08,114.09v.42a4.24,4.24,0,0,0,.44,2.13,1.53,1.53,0,0,0,1.39.71,1.82,1.82,0,0,0,1.83-1.39,11.77,11.77,0,0,0,.34-3.5v-1.89Q349,108,347.22,108a1.8,1.8,0,0,0-1.39.61,3.32,3.32,0,0,0-.6,2.2h-2.11l.2-12.41h7.48v2.36h-5.64l-.16,6.71a4.46,4.46,0,0,1,1.45-1.45,3.15,3.15,0,0,1,1.51-.37,2.69,2.69,0,0,1,2.79,2.2,14.63,14.63,0,0,1,.37,3.9,32.4,32.4,0,0,1-.3,4.62,3.53,3.53,0,0,1-3.67,3.37l-.21,0a3.69,3.69,0,0,1-3-1.18,5.36,5.36,0,0,1-1-3.53v-.91Z" transform="translate(0 0)"/><path class="cls-2" d="M353.78,116.2h2.45v3.23h-2.45Z" transform="translate(0 0)"/><path class="cls-2" d="M361.16,108.27a3.25,3.25,0,0,1-1.31-.84,3.29,3.29,0,0,1-.81-1.65,10.34,10.34,0,0,1-.19-2A6.84,6.84,0,0,1,360,99.52,3.71,3.71,0,0,1,363,98.1a3.44,3.44,0,0,1,2.83,1.3,6.86,6.86,0,0,1,1,4.26,6.73,6.73,0,0,1-.53,3.1,4.1,4.1,0,0,1-1.51,1.5,2.74,2.74,0,0,1,1.8,1.57,8.6,8.6,0,0,1,.59,3.51c0,2.25-.37,3.87-1.11,4.84a3.78,3.78,0,0,1-3.21,1.47,4,4,0,0,1-3.11-1.3c-.75-.88-1.13-2.39-1.13-4.53a11,11,0,0,1,.51-3.73A2.86,2.86,0,0,1,361.16,108.27Zm-.41,5.26a5.73,5.73,0,0,0,.55,2.94,1.86,1.86,0,0,0,1.66.83,1.74,1.74,0,0,0,1.72-1,8.15,8.15,0,0,0,.48-3.32,5.13,5.13,0,0,0-.53-2.75,1.8,1.8,0,0,0-1.64-.81,1.78,1.78,0,0,0-1.73,1,7.19,7.19,0,0,0-.52,3.11Zm.18-9.75a4.7,4.7,0,0,0,.52,2.55,1.68,1.68,0,0,0,1.4.75,1.78,1.78,0,0,0,1.38-.69,4.74,4.74,0,0,0,.59-2.83c0-2.06-.64-3.09-1.91-3.09a1.65,1.65,0,0,0-1.46.82,4.68,4.68,0,0,0-.53,2.49Z" transform="translate(0 0)"/><path class="cls-2" d="M372,114.09v.42a4.24,4.24,0,0,0,.44,2.13,1.53,1.53,0,0,0,1.39.71,1.82,1.82,0,0,0,1.83-1.39,11.77,11.77,0,0,0,.34-3.5v-1.89q-.12-2.58-1.86-2.58a1.83,1.83,0,0,0-1.39.61,3.32,3.32,0,0,0-.6,2.2H370l.2-12.41h7.48v2.36h-5.57l-.16,6.71a4.46,4.46,0,0,1,1.45-1.45,3.15,3.15,0,0,1,1.51-.37,2.69,2.69,0,0,1,2.79,2.2,14.63,14.63,0,0,1,.37,3.9,32.4,32.4,0,0,1-.3,4.62,3.53,3.53,0,0,1-3.67,3.37l-.21,0a3.69,3.69,0,0,1-3-1.18,5.36,5.36,0,0,1-1-3.53v-.91Z" transform="translate(0 0)"/><path class="cls-2" d="M381.76,101a9.53,9.53,0,0,0,1.42-1.19c.31-.32.77-.81,1.39-1.48h1.83v21.09h-2.08v-17.9a12.24,12.24,0,0,1-1.22,1.17,5.53,5.53,0,0,1-1.34.8Z" transform="translate(0 0)"/><path class="cls-2" d="M391.06,110.58h3.1V113h-3.1Z" transform="translate(0 0)"/><path class="cls-2" d="M397.55,119.43l5.3-18.73h-6.08V98.34h8v2.22L400,119.43Z" transform="translate(0 0)"/></svg>