<svg id="Capa_1" data-name="Capa 1" xmlns="http://www.w3.org/2000/svg" viewBox="0 0 450.84 143.57"><defs><style>.cls-1{fill:#801f1b;}.cls-2{fill:#1d1d1b;}</style></defs><polygon class="cls-1" points="43.85 46.75 0 90.59 43.78 134.37 87.61 90.54 61.5 64.43 43.63 82.31 51.82 90.5 60.87 81.44 69.91 90.48 44.06 116.32 18.21 90.48 52.83 55.86 43.85 46.75"/><path class="cls-1" d="M217.92,370.66l-43.84,43.85,43.78,43.78,43.83-43.83-9-8.95-34.59,34.73-25.85-25.85,34.62-34.61Z" transform="translate(-80.84 -323.91)"/><path class="cls-1" d="M171.44,411.61l43.83-43.83-26.11-26.11-17.87,17.88,8.19,8.19,9.06-9.06,9,9-35,35Z" transform="translate(-80.84 -323.91)"/><path class="cls-1" d="M171.23,323.91,127.4,367.74l26.11,26.11L171.38,376l-8.19-8.19-9.05,9-9-9,35-35Z" transform="translate(-80.84 -323.91)"/><path class="cls-2" d="M276.65,385.2V366.44q0-8.06,2.8-11a9.13,9.13,0,0,1,6.87-2.95,8.57,8.57,0,0,1,7,3.26Q296,359,296,366.19V387.1q0,9.87-2.62,12.72a9,9,0,0,1-6.9,2.81q-5,0-7.4-3t-2.41-12.26Zm4.65,0v1.62q0,6.64,1.45,8.47a4.44,4.44,0,0,0,3.57,1.83,4.36,4.36,0,0,0,3.52-1.87q1.49-1.86,1.49-8.25V367.38c0-3.74-.48-6.24-1.45-7.48a4.3,4.3,0,0,0-3.56-1.86,4.59,4.59,0,0,0-3.5,1.72q-1.51,1.68-1.52,7.94Z" transform="translate(-80.84 -323.91)"/><path class="cls-2" d="M302.2,353h4.66v36.34q0,3.93,1.27,5.83a4,4,0,0,0,3.45,1.9,4.12,4.12,0,0,0,3.64-2.08,11.17,11.17,0,0,0,1.33-5.94V353h4.65v36.23q0,7.25-2.65,10.33a8.6,8.6,0,0,1-6.85,3.06,8.92,8.92,0,0,1-6.77-2.92q-2.73-2.91-2.73-9.8V353Z" transform="translate(-80.84 -323.91)"/><path class="cls-2" d="M326.12,353h20.42v5.55h-7.89V402.1H334V358.56h-7.88Z" transform="translate(-80.84 -323.91)"/><path class="cls-2" d="M354.81,385.41v2.88q0,4.74,1.3,6.78a4.12,4.12,0,0,0,3.66,2,4.68,4.68,0,0,0,4-2,9.39,9.39,0,0,0,1.47-5.69,9.63,9.63,0,0,0-1.09-5,15.74,15.74,0,0,0-4.31-4.22c-4.26-3.2-6.81-5.88-7.67-8a19.71,19.71,0,0,1-1.27-7.34q0-6.54,2.5-9.45a8.72,8.72,0,0,1,7-2.95q4.44,0,6.61,2.74t2.17,8.75v3.65H364.5v-2.11a14.91,14.91,0,0,0-.82-5.41,3.25,3.25,0,0,0-3.35-2.07,3.91,3.91,0,0,0-3.69,2,9.51,9.51,0,0,0-1.11,4.81,8.26,8.26,0,0,0,1.78,5.73,38,38,0,0,0,5.21,4.53q4.77,3.45,6.05,6.61a20,20,0,0,1,1.3,7.66q0,7.36-2.79,10.33a9.47,9.47,0,0,1-7.21,2.95c-3.6,0-6.13-1.24-7.57-3.73a19.46,19.46,0,0,1-2.15-9.77v-3.72Z" transform="translate(-80.84 -323.91)"/><path class="cls-2" d="M375,385.2V366.44q0-8.06,2.8-11a9.13,9.13,0,0,1,6.87-2.95,8.57,8.57,0,0,1,7,3.26q2.63,3.24,2.62,10.44V387.1q0,9.87-2.62,12.72a9,9,0,0,1-6.9,2.81q-5,0-7.4-3T375,387.38Zm4.65,0v1.62q0,6.64,1.45,8.47a4.44,4.44,0,0,0,3.57,1.83,4.36,4.36,0,0,0,3.52-1.87q1.49-1.86,1.49-8.25V367.38c0-3.74-.48-6.24-1.45-7.48a4.3,4.3,0,0,0-3.56-1.86,4.59,4.59,0,0,0-3.5,1.72q-1.51,1.68-1.52,7.94Z" transform="translate(-80.84 -323.91)"/><path class="cls-2" d="M400.51,353h4.66v36.34q0,3.93,1.27,5.83a4,4,0,0,0,3.45,1.9,4.12,4.12,0,0,0,3.64-2.08,11.17,11.17,0,0,0,1.33-5.94V353h4.65v36.23q0,7.25-2.65,10.33a8.6,8.6,0,0,1-6.85,3.06,8.92,8.92,0,0,1-6.77-2.92q-2.73-2.91-2.73-9.8V353Z" transform="translate(-80.84 -323.91)"/><path class="cls-2" d="M425.92,402.1V353h10.44a6.79,6.79,0,0,1,6.2,3.17q2,3.12,2,9.1a21.46,21.46,0,0,1-1.28,8q-1.27,3.12-5.26,3.86,3.09.21,4.25,2.22a12.82,12.82,0,0,1,1.25,6.08q.24,12.57,1.33,16.65h-5a122.77,122.77,0,0,1-1-15.35,9.26,9.26,0,0,0-1.21-5.24,4.42,4.42,0,0,0-3.9-1.65h-3.19V402.1Zm4.65-27.79h3.33c2.35,0,3.93-.64,4.75-1.9s1.25-3.55,1.25-6.85c0-2.53-.4-4.33-1.2-5.38s-2.32-1.62-4.56-1.62h-3.57Z" transform="translate(-80.84 -323.91)"/><path class="cls-2" d="M464.28,385.9h4.65v2.36q0,8-2.29,11.17a7.66,7.66,0,0,1-6.63,3.2q-4.65,0-7-3.09t-2.33-11.21v-20.7q0-8.53,2.48-11.84a8.3,8.3,0,0,1,7-3.3q4.44,0,6.61,2.95t2.17,8.85v3.34h-4.65V365a11.75,11.75,0,0,0-.9-5.2,3.1,3.1,0,0,0-3-1.79,4.45,4.45,0,0,0-3.64,1.72q-1.4,1.68-1.4,6.08v23.54q0,4.32,1.32,6a4,4,0,0,0,3.24,1.69,3.5,3.5,0,0,0,3.37-2.39,19.84,19.84,0,0,0,1-7.42Z" transform="translate(-80.84 -323.91)"/><path class="cls-2" d="M475.17,353h4.66V402.1h-4.66Z" transform="translate(-80.84 -323.91)"/><path class="cls-2" d="M486,353h7.33l8.8,41.22V353h4.36V402.1h-7.11l-9-42.2v42.2H486Z" transform="translate(-80.84 -323.91)"/><path class="cls-2" d="M522,381.58V376h9.67v24.31a20,20,0,0,1-9.45,2.29q-5,0-7.45-3.06t-2.43-10.37v-22q0-8.22,2.58-11.45a8.78,8.78,0,0,1,7.3-3.23q4.75,0,7.09,3.09t2.36,9.13v2.39H527v-.7q0-4.63-1.21-6.5a3.74,3.74,0,0,0-3.35-1.86,4.5,4.5,0,0,0-4.12,2.21q-1.35,2.22-1.35,7.06v20.81q0,5.55,1.4,7.27a4.93,4.93,0,0,0,4,1.69,10.82,10.82,0,0,0,4.65-1.34V381.58Z" transform="translate(-80.84 -323.91)"/><text x="-80.84" y="-323.91"/><path class="cls-2" d="M330.25,422.25h3.48L337.92,440V422.25H340v21.09h-3.38l-4.3-18.13v18.13h-2.07Z" transform="translate(-80.84 -323.91)"/><path class="cls-2" d="M342.88,422.25h2.22v21.09h-2.22Z" transform="translate(-80.84 -323.91)"/><path class="cls-2" d="M347.34,422.25h9.72v2.39h-3.75v18.7h-2.22v-18.7h-3.75Z" transform="translate(-80.84 -323.91)"/><path class="cls-2" d="M359.21,440.11h2.45v3.23h-2.45Z" transform="translate(-80.84 -323.91)"/><path class="cls-2" d="M364.16,437.51h2.08v.5a4.73,4.73,0,0,0,.49,2.4,1.61,1.61,0,0,0,1.47.8c1.32,0,2.05-.76,2.18-2.28s.2-2.9.2-4.54a4,4,0,0,1-2.94,1.43c-1.83,0-2.93-1.07-3.32-3.23a20.66,20.66,0,0,1-.23-3.35,15.44,15.44,0,0,1,.43-4.39,3.8,3.8,0,0,1,3.86-2.83,3.71,3.71,0,0,1,3.67,2.38c.4.88.61,2.94.61,6.17v.63q0,5-.28,7.79-.42,4.58-4.27,4.58a3.46,3.46,0,0,1-3-1.3,6.2,6.2,0,0,1-.91-3.55Zm2-8.51a8.12,8.12,0,0,0,.53,3.55,1.77,1.77,0,0,0,1.62.92,1.9,1.9,0,0,0,1.65-.94,7.18,7.18,0,0,0,.64-3.68,11.37,11.37,0,0,0-.26-2.87,1.92,1.92,0,0,0-2-1.6c-1,0-1.68.6-2,1.81A13.73,13.73,0,0,0,366.17,429Z" transform="translate(-80.84 -323.91)"/><path class="cls-2" d="M374.93,436.74v-5.91q0-3.22.06-4.71a4.25,4.25,0,0,1,.82-2.48A4.12,4.12,0,0,1,379.3,422a3.85,3.85,0,0,1,4.09,3,15.84,15.84,0,0,1,.28,3.7V437a9,9,0,0,1-1.07,5,3.75,3.75,0,0,1-3.31,1.53,4,4,0,0,1-3.14-1.39c-.81-.94-1.22-2.52-1.22-4.74Zm2.08-8v8.74a4.74,4.74,0,0,0,.69,2.95,2.06,2.06,0,0,0,1.6.81,2,2,0,0,0,1.61-.8,5.26,5.26,0,0,0,.68-3.2V428.3a6.12,6.12,0,0,0-.55-3.12,2,2,0,0,0-1.79-.8,2.08,2.08,0,0,0-1.65.71,4.78,4.78,0,0,0-.59,2.85Z" transform="translate(-80.84 -323.91)"/><path class="cls-2" d="M385.77,436.74v-5.91c0-2.15,0-3.72.05-4.71a4.26,4.26,0,0,1,.83-2.48,4.09,4.09,0,0,1,3.49-1.62,3.83,3.83,0,0,1,4.08,3,15.29,15.29,0,0,1,.28,3.7V437a9,9,0,0,1-1.07,5,3.72,3.72,0,0,1-3.3,1.53,4,4,0,0,1-3.15-1.39c-.81-.94-1.21-2.52-1.21-4.74Zm2.07-8v8.74a4.74,4.74,0,0,0,.69,2.95,2.08,2.08,0,0,0,1.61.81,2,2,0,0,0,1.61-.8,5.28,5.28,0,0,0,.67-3.2V428.3a6,6,0,0,0-.55-3.12,2,2,0,0,0-1.79-.8,2.06,2.06,0,0,0-1.64.71,4.69,4.69,0,0,0-.6,2.85Z" transform="translate(-80.84 -323.91)"/><path class="cls-2" d="M396.91,440.11h2.46v3.23h-2.46Z" transform="translate(-80.84 -323.91)"/><path class="cls-2" d="M404,437.29v1.27a3.27,3.27,0,0,0,.62,2.12,1.46,1.46,0,0,0,1.21.53,2,2,0,0,0,1.72-.8,5.22,5.22,0,0,0,.69-3.09V437q0-3.91-2.54-3.91h-.37v-2.35a4.8,4.8,0,0,0,1.67-.29,1.69,1.69,0,0,0,1-1.31,8.34,8.34,0,0,0,.19-1.8,4,4,0,0,0-.49-2.34,1.69,1.69,0,0,0-1.45-.65,1.8,1.8,0,0,0-1.56.74,3.83,3.83,0,0,0-.5,2.17v.79H402.1v-.86a6,6,0,0,1,1.06-3.9,3.65,3.65,0,0,1,3-1.3,4,4,0,0,1,3,1.17,5.57,5.57,0,0,1,1.12,3.94,7.88,7.88,0,0,1-.55,3.44A2.86,2.86,0,0,1,408,432a3,3,0,0,1,1.73,1.41,8.7,8.7,0,0,1,.54,3.74,11.39,11.39,0,0,1-.43,3.71,3.86,3.86,0,0,1-3.93,2.71,3.46,3.46,0,0,1-3-1.45,7.09,7.09,0,0,1-1-4.05v-.78Z" transform="translate(-80.84 -323.91)"/><path class="cls-2" d="M412,435.94l5-13.69h2.82v13.57h1.95v2.36h-1.95v5.16h-2.07v-5.16H412Zm1.85-.12h3.93V425Z" transform="translate(-80.84 -323.91)"/><path class="cls-2" d="M425.92,438v.42a4.18,4.18,0,0,0,.44,2.13,1.52,1.52,0,0,0,1.39.71,1.82,1.82,0,0,0,1.83-1.39,11.86,11.86,0,0,0,.34-3.5v-.66c0-.31,0-.71,0-1.23q-.12-2.58-1.86-2.58a1.81,1.81,0,0,0-1.39.61,3.31,3.31,0,0,0-.6,2.2h-2.11l.2-12.41h7.48v2.36H426l-.16,6.71a4.49,4.49,0,0,1,1.45-1.45,3.18,3.18,0,0,1,1.51-.37,2.69,2.69,0,0,1,2.79,2.2,14.4,14.4,0,0,1,.37,3.9,32.59,32.59,0,0,1-.3,4.62,3.52,3.52,0,0,1-3.88,3.35,3.7,3.7,0,0,1-3-1.18,5.33,5.33,0,0,1-1-3.53V438Z" transform="translate(-80.84 -323.91)"/><path class="cls-2" d="M434.62,440.11h2.45v3.23h-2.45Z" transform="translate(-80.84 -323.91)"/><path class="cls-2" d="M442,432.18a3.34,3.34,0,0,1-1.31-.84,3.29,3.29,0,0,1-.81-1.65,10,10,0,0,1-.19-2,6.82,6.82,0,0,1,1.11-4.26,3.71,3.71,0,0,1,3.07-1.42,3.44,3.44,0,0,1,2.83,1.3,6.91,6.91,0,0,1,1,4.26,6.79,6.79,0,0,1-.53,3.1,4.1,4.1,0,0,1-1.51,1.5,2.72,2.72,0,0,1,1.8,1.57,8.51,8.51,0,0,1,.59,3.51c0,2.25-.37,3.87-1.11,4.84a3.79,3.79,0,0,1-3.21,1.47,4,4,0,0,1-3.11-1.3c-.75-.88-1.13-2.39-1.13-4.53A11,11,0,0,1,440,434,2.86,2.86,0,0,1,442,432.18Zm-.41,5.26a5.76,5.76,0,0,0,.55,2.94,1.85,1.85,0,0,0,1.66.83,1.74,1.74,0,0,0,1.72-1,8.18,8.18,0,0,0,.48-3.32,5.18,5.18,0,0,0-.53-2.75,1.8,1.8,0,0,0-1.64-.81,1.78,1.78,0,0,0-1.73,1A7.11,7.11,0,0,0,441.58,437.44Zm.18-9.75a4.72,4.72,0,0,0,.52,2.55,1.66,1.66,0,0,0,1.4.75,1.76,1.76,0,0,0,1.38-.69,4.76,4.76,0,0,0,.59-2.83c0-2.06-.64-3.09-1.91-3.09a1.65,1.65,0,0,0-1.46.82A4.67,4.67,0,0,0,441.76,427.69Z" transform="translate(-80.84 -323.91)"/><path class="cls-2" d="M452.79,438v.42a4.18,4.18,0,0,0,.44,2.13,1.52,1.52,0,0,0,1.39.71,1.82,1.82,0,0,0,1.83-1.39,11.86,11.86,0,0,0,.34-3.5v-.66c0-.31,0-.71,0-1.23q-.12-2.58-1.86-2.58a1.83,1.83,0,0,0-1.39.61,3.31,3.31,0,0,0-.6,2.2H450.8l.2-12.41h7.48v2.36h-5.57l-.16,6.71a4.49,4.49,0,0,1,1.45-1.45,3.18,3.18,0,0,1,1.51-.37,2.69,2.69,0,0,1,2.79,2.2,14.4,14.4,0,0,1,.37,3.9,32.59,32.59,0,0,1-.3,4.62,3.52,3.52,0,0,1-3.88,3.35,3.7,3.7,0,0,1-3-1.18,5.33,5.33,0,0,1-1-3.53V438Z" transform="translate(-80.84 -323.91)"/><path class="cls-2" d="M462.6,424.92a9.64,9.64,0,0,0,1.42-1.19c.31-.32.77-.81,1.39-1.48h1.83v21.09h-2.08v-17.9a13,13,0,0,1-1.22,1.17,5.35,5.35,0,0,1-1.34.8Z" transform="translate(-80.84 -323.91)"/><path class="cls-2" d="M471.9,434.49H475v2.37H471.9Z" transform="translate(-80.84 -323.91)"/><path class="cls-2" d="M478.39,443.34l5.3-18.73h-6.08v-2.36h8v2.22l-4.74,18.87Z" transform="translate(-80.84 -323.91)"/></svg>